# AST/ASF file generated using VICON BodyLanguage
# -----------------------------------------------
:version 1.10
:name VICON
:units
  mass 1.0
  length 0.45
  angle deg
:documentation
   .ast/.asf automatically generated from VICON data using
   VICON BodyBuilder and BodyLanguage model FoxedUp or BRILLIANT.MOD
:root
   order TX TY TZ RX RY RZ
   axis XYZ
   position 0 0 0  
   orientation 0 0 0 
:bonedata
  begin
     id 1 
     name lhipjoint
     direction 0.643824 -0.71708 0.266994 
     length 2.52133 
     axis 0 0 0  XYZ
  end
  begin
     id 2 
     name lfemur
     direction 0.34202 -0.939693 0  
     length 7.51824  
     axis 0 0 20  XYZ
    dof rx ry rz
    limits (-160.0 20.0)
           (-70.0 70.0)
           (-60.0 70.0)
  end
  begin
     id 3 
     name ltibia
     direction 0.34202 -0.939693 0   
     length 7.3685   
     axis 0 0 20   XYZ
    dof rx
    limits (-10.0 170.0)
  end
  begin
     id 4 
     name lfoot
     direction 0.105419 -0.289636 0.951314   
     length 2.20972   
     axis -90 7.62852e-016 20   XYZ
    dof rx rz
    limits (-45.0 90.0)
           (-70.0 20.0)
  end
  begin
     id 5 
     name ltoes
     direction 1.53549e-011 -4.21833e-011 1   
     length 1.10139   
     axis -90 7.62852e-016 20   XYZ
    dof rx
    limits (-90.0 20.0)
  end
  begin
     id 6 
     name rhipjoint
     direction -0.608823 -0.743445 0.276811   
     length 2.43192  
     axis 0 0 0  XYZ 
  end
  begin
     id 7 
     name rfemur
     direction -0.34202 -0.939693 0   
     length 7.69715   
     axis 0 0 -20   XYZ
    dof rx ry rz
    limits (-160.0 20.0)
           (-70.0 70.0)
           (-70.0 60.0)
  end
  begin
     id 8 
     name rtibia
     direction -0.34202 -0.939693 0   
     length 7.44924   
     axis 0 0 -20   XYZ
    dof rx
    limits (-10.0 170.0)
 end
 begin
     id 9 
     name rfoot
     direction -0.103614 -0.284677 0.953007   
     length 2.22623  
     axis -90 -7.62852e-016 -20   XYZ
    dof rx rz
    limits (-45.0 90.0)
           (-20.0 70.0)
  end
  begin
     id 10 
     name rtoes
     direction -1.53537e-011 -4.22026e-011 1   
     length 1.11   
     axis -90 -7.62852e-016 -20   XYZ
    dof rx
    limits (-90.0 20.0)
  end
  begin
     id 11 
     name lowerback
     direction -0.0101212 0.99662 -0.0815298   
     length 2.08277   
     axis 0 0 0   XYZ
    dof rx ry rz
    limits (-20.0 45.0)
           (-30.0 30.0)
           (-30.0 30.0)
  end
  begin
     id 12 
     name upperback
     direction 0.024314 0.999591 -0.0150645   
     length 2.08524   
     axis 0 0 0   XYZ
    dof rx ry rz
    limits (-20.0 45.0)
           (-30.0 30.0)
           (-30.0 30.0)
  end
  begin
     id 13 
     name thorax
     direction 0.0285959 0.999323 0.0231357   
     length 2.09645   
     axis 0 0 0   XYZ
    dof rx ry rz
    limits (-20.0 45.0)
           (-30.0 30.0)
           (-30.0 30.0)
  end
  begin
     id 14 
     name lowerneck
     direction -0.065512 0.979301 0.191515   
     length 1.63798   
     axis 0 0 0   XYZ
    dof rx ry rz
    limits (-20.0 45.0)
           (-30.0 30.0)
           (-30.0 30.0)
  end
  begin
     id 15 
     name upperneck
     direction 0.0498479 0.98191 -0.182667   
     length 1.68731   
     axis 0 0 0   XYZ
    dof rx ry rz
    limits (-20.0 45.0)
           (-30.0 30.0)
           (-30.0 30.0)
  end
  begin
     id 16
     name head
     direction 0.0230358 0.996257 -0.0833175  
     length 1.69785  
     axis 0 0 0   XYZ
    dof rx ry rz
    limits (-20.0 45.0)
           (-30.0 30.0)
           (-30.0 30.0)
  end
  begin
     id 17 
     name lclavicle
     direction 0.967963 0.201165 -0.150269  
     length 3.63976  
     axis 0 0 0   XYZ
    dof ry rz
    limits (-20.0 10.0)
           (0.0 20.0)
  end
  begin
     id 18 
     name lhumerus
     direction 1 -4.48954e-011 -2.92837e-028   
     length 5.32462   
     axis 180 -30 -90   XYZ
    dof rx ry rz
    limits (-60.0 90.0)
           (-90.0 90.0)
           (-90.0 90.0)
  end
  begin
     id 19
     name lradius
     direction 1 -4.48958e-011 -6.39511e-027   
     length 3.48402   
     axis 180 -30 -90   XYZ
    dof rx
    limits (-10.0 170.0)
  end
  begin
     id 20
     name lwrist
     direction 1 -4.48975e-011 -1.1413e-026   
     length 1.74201   
     axis 6.88575e-015 90 90   XYZ
    dof ry
    limits (-180.0 0.0)
 end
  begin
     id 21 
     name lhand
     direction 1 -4.48899e-011 -2.28192e-026   
     length 0.572476   
     axis 1.45643e-014 90 90   XYZ
    dof rx rz
    limits (-90.0 90.0)
           (-45.0 45.0)
  end
  begin
     id 22 
     name lfingers
     direction 1 -4.49155e-011 -4.5684e-026   
     length 0.461545   
     axis 2.91283e-014 90 90   XYZ
    dof rx
    limits (0.0 90.0)
  end
  begin
     id 23
     name lthumb
     direction 0.707107 -6.34943e-011 0.707107   
     length 0.662688   
     axis -90 45 -2.25915e-014   XYZ
    dof rx rz
    limits (-45.0 45.0)
           (-45.0 45.0)
  end
  begin
     id 24 
     name rclavicle
     direction -0.964103 0.264019 -0.0282629   
     length 3.54491  
     axis 0 0 0   XYZ 
    dof ry rz
    limits (-10.0 20.0)
           (-20.0 0.0)
  end
  begin
     id 25 
     name rhumerus
     direction -1 -4.48964e-011 -2.45032e-027  
     length 5.33589   
     axis 180 30 90   XYZ
    dof rx ry rz
    limits (-90.0 60.0)
           (-90.0 90.0)
           (-90.0 90.0)
  end
  begin
     id 26 
     name rradius
     direction -1 -4.48987e-011 -1.55093e-027   
     length 3.64134   
     axis 180 30 90   XYZ
    dof rx
    limits (-10.0 170.0)
  end
  begin
     id 27 
     name rwrist
     direction -1 -4.4897e-011 -1.14128e-026   
     length 1.82067   
     axis 6.88575e-015 -90 -90   XYZ
    dof ry
    limits (-180.0 0.0)
  end
  begin
     id 28
     name rhand
     direction -1 -4.49021e-011 -2.28301e-026   
     length 0.734811   
     axis 1.45643e-014 -90 -90   XYZ
    dof rx rz
    limits (-90.0 90.0)
           (-45.0 45.0)
  end
  begin
     id 29
     name rfingers
     direction -1 -4.48862e-011 -4.56319e-026   
     length 0.592424   
     axis 2.91283e-014 -90 -90   XYZ
    dof rx
    limits (0.0 90.0)
  end
  begin
     id 30
     name rthumb
     direction -0.707107 -6.34978e-011 0.707107   
     length 0.850605   
     axis -90 -45 2.25915e-014   XYZ
    dof rx rz
    limits (-45.0 45.0)
           (-45.0 45.0)
  end
:hierarchy
  begin
    root lhipjoint rhipjoint lowerback
    lhipjoint lfemur
    lfemur ltibia
    ltibia lfoot
    lfoot ltoes
    rhipjoint rfemur
    rfemur rtibia
    rtibia rfoot
    rfoot rtoes
    lowerback upperback
    upperback thorax
    thorax lowerneck lclavicle rclavicle
    lowerneck upperneck
    upperneck head
    lclavicle lhumerus
    lhumerus lradius
    lradius lwrist
    lwrist lhand lthumb
    lhand lfingers
    rclavicle rhumerus
    rhumerus rradius
    rradius rwrist
    rwrist rhand rthumb
    rhand rfingers
  end

#!OML:ASF F:\VICON\USERDATA\INSTALL\rory3\rory3.ASF
:FULLY-SPECIFIED
:DEGREES
1
root -0.863966 17.8027 2.24127 5.58511 -15.8939 0.473145
lowerback -1.60265 -1.99244 -4.22802
upperback -2.20798 -2.61632 2.79816
thorax -1.05669 -1.23712 5.24224
lowerneck -19.6044 -8.39274 -14.0874
upperneck 26.6148 -9.42982 6.49392
head 13.2433 -4.78983 3.1932
rclavicle -3.23584e-014 0
rhumerus -29.6456 -2.46337 -80.2432
rradius 30.0296
rwrist 17.9342
rhand -19.4607 2.19254
rfingers 7.12502
rthumb 6.86039 -27.6763
lclavicle -3.23584e-014 0
lhumerus -31.8641 1.29106 89.3618
lradius 27.3076
lwrist -9.87736
lhand -12.4214 25.4219
lfingers 7.12502
lthumb 13.6509 54.9543
rfemur -16.3679 7.01608 12.6675
rtibia 30.5071
rfoot -16.7109 -1.84168
rtoes 4.12725
lfemur -3.86208 -1.0523 -20.4506
ltibia 20.45
lfoot -16.2996 21.16
ltoes -17.9388
2
root -0.859564 17.8019 2.24383 5.49868 -15.9332 0.354317
lowerback -1.53996 -1.97348 -4.18977
upperback -2.15751 -2.59291 2.84244
thorax -1.04217 -1.2271 5.26833
lowerneck -19.5361 -8.37254 -14.0909
upperneck 26.5834 -9.39503 6.45352
head 13.21 -4.78144 3.18606
rclavicle 6.60773e-014 -6.36111e-015
rhumerus -29.6112 -2.31634 -80.2893
rradius 30.0902
rwrist 17.8082
rhand -19.5047 1.93431
rfingers 7.12502
rthumb 6.818 -27.9359
lclavicle 6.60773e-014 -6.36111e-015
lhumerus -31.7836 1.41954 89.3495
lradius 27.2381
lwrist -10.0926
lhand -12.6697 25.2887
lfingers 7.12502
lthumb 13.4115 54.8369
rfemur -16.1774 7.20136 12.7982
rtibia 30.3869
rfoot -16.7217 -2.05004
rtoes 3.73449
lfemur -3.82815 -1.01163 -20.3447
ltibia 20.6549
lfoot -16.4299 21.1722
ltoes -17.9289
3
root -0.856816 17.8005 2.24426 5.40506 -15.9284 -0.0746573
lowerback -1.31897 -1.9521 -3.82753
upperback -2.13186 -2.5722 2.93003
thorax -1.15287 -1.21853 5.16228
lowerneck -19.4886 -8.34732 -13.9442
upperneck 26.6487 -9.34736 6.22331
head 13.1991 -4.778 3.08254
rclavicle 5.19325e-014 -3.97569e-015
rhumerus -29.6661 -2.10751 -80.407
rradius 30.1411
rwrist 17.5778
rhand -19.5759 1.83354
rfingers 7.12502
rthumb 6.7492 -28.0389
lclavicle 5.19325e-014 -3.97569e-015
lhumerus -31.785 1.28138 89.3175
lradius 27.1397
lwrist -10.145
lhand -12.8378 25.0257
lfingers 7.12502
lthumb 13.2496 54.5846
rfemur -15.8348 7.53197 13.2911
rtibia 30.1454
rfoot -16.7544 -2.37361
rtoes 3.34329
lfemur -3.79551 -0.965132 -19.8776
ltibia 21.0273
lfoot -16.6671 21.1279
ltoes -17.824
4
root -0.85459 17.7994 2.24538 5.22139 -15.974 -0.609679
lowerback -1.02149 -1.89467 -3.32732
upperback -2.03289 -2.50333 3.02017
thorax -1.24159 -1.18979 4.98203
lowerneck -19.5045 -8.35497 -13.8719
upperneck 26.6866 -9.3454 6.10579
head 13.2066 -4.78525 3.02466
rclavicle -2.61961e-014 1.03368e-014
rhumerus -29.6247 -2.12803 -80.489
rradius 30.0969
rwrist 17.5476
rhand -19.6112 1.81414
rfingers 7.12502
rthumb 6.71511 -28.0594
lclavicle -2.61961e-014 1.03368e-014
lhumerus -31.7452 0.991752 89.323
lradius 27.1322
lwrist -9.97464
lhand -12.9314 25.0908
lfingers 7.12502
lthumb 13.1594 54.6555
rfemur -15.4286 7.83264 13.9296
rtibia 29.9822
rfoot -16.7462 -2.66578
rtoes 2.9387
lfemur -3.55072 -0.917358 -19.3147
ltibia 21.2681
lfoot -16.8567 21.1359
ltoes -17.7261
5
root -0.850837 17.7984 2.24518 5.11481 -16.0211 -0.779027
lowerback -0.94669 -1.86581 -3.1851
upperback -1.94467 -2.46655 3.0379
thorax -1.20149 -1.17566 4.92072
lowerneck -19.595 -8.34087 -13.8648
upperneck 26.7559 -9.29571 6.041
head 13.2439 -4.77004 3.00557
rclavicle -5.1274e-014 3.4191e-014
rhumerus -29.5452 -2.16538 -80.5653
rradius 30.1402
rwrist 17.6938
rhand -19.7602 1.93043
rfingers 7.12502
rthumb 6.57136 -27.9476
lclavicle -5.1274e-014 3.4191e-014
lhumerus -31.5725 0.793639 89.3653
lradius 27.0021
lwrist -9.79418
lhand -13.089 25.1514
lfingers 7.12502
lthumb 13.0074 54.7259
rfemur -15.2349 8.04665 14.1245
rtibia 29.8619
rfoot -16.7077 -2.85834
rtoes 3.05083
lfemur -3.45994 -0.977298 -19.1624
ltibia 21.4533
lfoot -17.0685 21.203
ltoes -17.4449
6
root -0.84551 17.801 2.24491 5.1402 -16.0354 -0.742974
lowerback -1.03502 -1.86189 -3.19874
upperback -1.93189 -2.4598 2.99709
thorax -1.14066 -1.17395 4.88233
lowerneck -19.5858 -8.32546 -13.9039
upperneck 26.795 -9.26129 6.03404
head 13.2563 -4.76081 3.01638
rclavicle -1.90709e-015 -9.54166e-015
rhumerus -29.4965 -2.23081 -80.6242
rradius 30.2009
rwrist 17.9808
rhand -19.811 2.41083
rfingers 7.12502
rthumb 6.5223 -27.4687
lclavicle -1.90709e-015 -9.54166e-015
lhumerus -31.492 0.722496 89.3522
lradius 26.9573
lwrist -9.73239
lhand -13.1553 25.1914
lfingers 7.12502
lthumb 12.9435 54.7699
rfemur -15.2535 8.11732 14.0559
rtibia 29.7859
rfoot -16.6715 -2.95104
rtoes 3.25009
lfemur -3.56135 -0.960284 -19.2184
ltibia 21.5771
lfoot -17.1195 21.1826
ltoes -17.4472
7
root -0.840399 17.8016 2.24398 5.08634 -15.9749 -0.698968
lowerback -1.00368 -1.84307 -3.18391
upperback -1.92224 -2.4357 2.91616
thorax -1.15481 -1.1622 4.79073
lowerneck -19.5239 -8.37395 -13.9245
upperneck 26.8095 -9.33633 6.03543
head 13.2602 -4.79714 3.00732
rclavicle -5.81445e-015 -9.14409e-015
rhumerus -29.496 -2.42975 -80.6135
rradius 30.184
rwrist 18.4054
rhand -19.8206 2.85231
rfingers 7.12502
rthumb 6.51298 -27.0275
lclavicle -5.81445e-015 -9.14409e-015
lhumerus -31.4223 0.630495 89.3107
lradius 26.8995
lwrist -9.86844
lhand -13.1761 25.3133
lfingers 7.12502
lthumb 12.9234 54.8931
rfemur -15.1882 8.29493 14.0041
rtibia 29.7786
rfoot -16.7978 -3.14284
rtoes 3.35193
lfemur -3.5468 -1.01873 -19.2788
ltibia 21.6039
lfoot -17.0886 21.2077
ltoes -17.5214
